<?xml version="1.0" encoding="UTF-8"?>
<!DOCTYPE svg PUBLIC "-//W3C//DTD SVG 1.1//EN" "http://www.w3.org/Graphics/SVG/1.1/DTD/svg11.dtd">
<svg xmlns="http://www.w3.org/2000/svg" version="1.1" width="128px" height="128px" fill="#712754" xmlns:xlink="http://www.w3.org/1999/xlink">
<g><path d="M 58.5,-0.5 C 61.8333,-0.5 65.1667,-0.5 68.5,-0.5C 68.5,2.16667 68.5,4.83333 68.5,7.5C 70.5,7.5 72.5,7.5 74.5,7.5C 74.5,8.5 74.5,9.5 74.5,10.5C 67.1667,10.5 59.8333,10.5 52.5,10.5C 52.5,9.5 52.5,8.5 52.5,7.5C 54.5,7.5 56.5,7.5 58.5,7.5C 58.5,4.83333 58.5,2.16667 58.5,-0.5 Z"/></g>
<g><path d="M 52.5,7.5 C 52.5,8.5 52.5,9.5 52.5,10.5C 59.8333,10.5 67.1667,10.5 74.5,10.5C 74.5,9.5 74.5,8.5 74.5,7.5C 75.4345,8.56764 75.7678,9.90097 75.5,11.5C 67.5,11.5 59.5,11.5 51.5,11.5C 51.2322,9.90097 51.5655,8.56764 52.5,7.5 Z"/></g>
<g><path d="M 73.5,14.5 C 70.3509,13.8349 67.0175,13.5016 63.5,13.5C 59.7614,13.5136 56.428,14.1803 53.5,15.5C 52.596,14.791 52.2627,13.791 52.5,12.5C 59.8635,12.1694 67.1968,12.5027 74.5,13.5C 74.3764,14.1067 74.0431,14.44 73.5,14.5 Z"/></g>
<g><path d="M 73.5,14.5 C 72.7256,20.8153 72.059,27.1487 71.5,33.5C 71.5511,36.2529 71.8844,38.9195 72.5,41.5C 72.427,43.0269 73.0937,44.0269 74.5,44.5C 74.427,46.0269 75.0937,47.0269 76.5,47.5C 80.2447,50.823 82.2447,54.9896 82.5,60C 79.9827,82.4882 77.6494,104.988 75.5,127.5C 67.5,127.5 59.5,127.5 51.5,127.5C 49.053,104.144 46.3864,80.8107 43.5,57.5C 44.3469,55.1291 45.6802,53.1291 47.5,51.5C 48.9063,51.0269 49.573,50.0269 49.5,48.5C 51.3222,45.5279 53.1555,42.5279 55,39.5C 55.2722,31.461 54.7722,23.461 53.5,15.5C 56.428,14.1803 59.7614,13.5136 63.5,13.5C 67.0175,13.5016 70.3509,13.8349 73.5,14.5 Z"/></g>
<g><path d="M 72.5,41.5 C 73.9063,41.9731 74.573,42.9731 74.5,44.5C 73.0937,44.0269 72.427,43.0269 72.5,41.5 Z"/></g>
<g><path d="M 74.5,44.5 C 75.9063,44.9731 76.573,45.9731 76.5,47.5C 75.0937,47.0269 74.427,46.0269 74.5,44.5 Z"/></g>
<g><path d="M 49.5,48.5 C 49.573,50.0269 48.9063,51.0269 47.5,51.5C 47.427,49.9731 48.0937,48.9731 49.5,48.5 Z"/></g>
</svg>
